<svg width="24" height="24" viewBox="0 0 24 24" fill="none" xmlns="http://www.w3.org/2000/svg">
<rect width="24" height="24" rx="12" fill="white"/>
<g clip-path="url(#clip0_584_559)">
<path d="M16.1705 8.12357L12.1705 11.6236C12.1168 11.6705 12.0738 11.7284 12.0443 11.7933C12.0148 11.8583 11.9995 11.9288 11.9995 12.0001C11.9995 12.0714 12.0148 12.1419 12.0443 12.2068C12.0738 12.2718 12.1168 12.3296 12.1705 12.3766L16.1705 15.8766C16.494 16.1591 17 15.9296 17 15.5001V8.50007C17 8.07007 16.494 7.84107 16.1705 8.12357ZM10.6705 8.12357L6.6705 11.6236C6.6168 11.6705 6.57375 11.7284 6.54426 11.7933C6.51477 11.8583 6.49951 11.9288 6.49951 12.0001C6.49951 12.0714 6.51477 12.1419 6.54426 12.2068C6.57375 12.2718 6.6168 12.3296 6.6705 12.3766L10.6705 15.8766C10.994 16.1591 11.5 15.9296 11.5 15.5001V8.50007C11.5 8.07007 10.994 7.84107 10.6705 8.12357Z" fill="black"/>
</g>
<defs>
<clipPath id="clip0_584_559">
<rect width="12" height="12" fill="white" transform="translate(6 6)"/>
</clipPath>
</defs>
</svg>
