<svg width="24" height="24" viewBox="0 0 24 24" fill="none" xmlns="http://www.w3.org/2000/svg">
<rect width="24" height="24" rx="12" fill="white"/>
<g clip-path="url(#clip0_584_569)">
<path d="M7 8.49998V15.5C7 15.93 7.506 16.159 7.8295 15.8765L11.8295 12.3765C11.8832 12.3295 11.9262 12.2717 11.9557 12.2067C11.9852 12.1418 12.0005 12.0713 12.0005 12C12.0005 11.9287 11.9852 11.8582 11.9557 11.7932C11.9262 11.7283 11.8832 11.6704 11.8295 11.6235L7.8295 8.12348C7.506 7.84098 7 8.07048 7 8.49998ZM12.5 8.49998V15.5C12.5 15.93 13.006 16.159 13.3295 15.8765L17.3295 12.3765C17.3832 12.3295 17.4262 12.2717 17.4557 12.2067C17.4852 12.1418 17.5005 12.0713 17.5005 12C17.5005 11.9287 17.4852 11.8582 17.4557 11.7932C17.4262 11.7283 17.3832 11.6704 17.3295 11.6235L13.3295 8.12348C13.006 7.84098 12.5 8.07048 12.5 8.49998Z" fill="black"/>
</g>
<defs>
<clipPath id="clip0_584_569">
<rect width="12" height="12" fill="white" transform="translate(6 6)"/>
</clipPath>
</defs>
</svg>
