<svg width="24" height="24" viewBox="0 0 24 24" fill="none" xmlns="http://www.w3.org/2000/svg">
<rect width="24" height="24" rx="12" fill="white"/>
<path d="M16.375 11.9998C16.375 11.8657 16.3692 11.7373 16.3575 11.6032L17.4425 10.7807C17.6758 10.6057 17.74 10.279 17.5942 10.0223L16.5033 8.13817C16.4334 8.01461 16.3203 7.92125 16.1857 7.87603C16.0511 7.83081 15.9045 7.83691 15.7742 7.89317L14.52 8.424C14.3042 8.27234 14.0767 8.13817 13.8375 8.02734L13.6683 6.67984C13.6333 6.38817 13.3825 6.1665 13.0908 6.1665H10.915C10.6175 6.1665 10.3667 6.38817 10.3317 6.67984L10.1625 8.02734C9.92334 8.13817 9.69584 8.27234 9.48 8.424L8.22584 7.89317C7.9575 7.7765 7.6425 7.8815 7.49667 8.13817L6.40584 10.0282C6.26 10.2848 6.32417 10.6057 6.5575 10.7865L7.6425 11.609C7.61832 11.8709 7.61832 12.1346 7.6425 12.3965L6.5575 13.219C6.32417 13.394 6.26 13.7207 6.40584 13.9773L7.49667 15.8615C7.6425 16.1182 7.9575 16.2232 8.22584 16.1065L9.48 15.5757C9.69584 15.7273 9.92334 15.8615 10.1625 15.9723L10.3317 17.3198C10.3667 17.6115 10.6175 17.8332 10.9092 17.8332H13.085C13.3767 17.8332 13.6275 17.6115 13.6625 17.3198L13.8317 15.9723C14.0708 15.8615 14.2983 15.7273 14.5142 15.5757L15.7683 16.1065C16.0367 16.2232 16.3517 16.1182 16.4975 15.8615L17.5883 13.9773C17.7342 13.7207 17.67 13.3998 17.4367 13.219L16.3517 12.3965C16.3692 12.2623 16.375 12.134 16.375 11.9998ZM12.0233 14.0415C10.8975 14.0415 9.98167 13.1257 9.98167 11.9998C9.98167 10.874 10.8975 9.95817 12.0233 9.95817C13.1492 9.95817 14.065 10.874 14.065 11.9998C14.065 13.1257 13.1492 14.0415 12.0233 14.0415Z" fill="black"/>
</svg>
